PathFileType	4	(X/Y/Z)	/private/var/folders/ty/39vw2z0n5t95rf49mx2f_75w0000gn/T/tmpv4vay5ru_Sports2D/tmpv4vay5ru_Sports2D_px_person00.trc
DataRate	CameraRate	NumFrames	NumMarkers	Units	OrigDataRate	OrigDataStartFrame	OrigNumFrames
60	60	6	22	m	60	165	220
Frame#	Time	Hip			RHip			RKnee			RAnkle			RBigToe			RSmallToe			RHeel			LHip			LKnee			LAnkle			LBigToe			LSmallToe			LHeel			Neck			Head			Nose			RShoulder			RElbow			RWrist			LShoulder			LElbow			LWrist		
		X1	Y1	Z1	X2	Y2	Z2	X3	Y3	Z3	X4	Y4	Z4	X5	Y5	Z5	X6	Y6	Z6	X7	Y7	Z7	X8	Y8	Z8	X9	Y9	Z9	X10	Y10	Z10	X11	Y11	Z11	X12	Y12	Z12	X13	Y13	Z13	X14	Y14	Z14	X15	Y15	Z15	X16	Y16	Z16	X17	Y17	Z17	X18	Y18	Z18	X19	Y19	Z19	X20	Y20	Z20	X21	Y21	Z21	X22	Y22	Z22
165	2.75	1018.6789278526143	577.6770352409899	0.0	1021.4693257621149	573.7950421378114	0.0	1031.5866472503794	703.082017639161	0.0	1121.298574945116	785.8694642504427	0.0	1086.8861719167023	825.6149193520722	0.0	1092.5069840770198	820.8400220921801	0.0	1146.167962969789	795.2217826123414	0.0	1018.7317127731561	571.3876259415763	0.0	966.3800445804237	702.354034578527	0.0	1088.0028896007798	737.1635090981066	0.0	1098.3754261204629	790.8618888357947	0.0	1100.5956241564381	784.045438321355	0.0	1109.2898745644995	733.5599121777446	0.0	924.5927365657466	452.3500538951596	0.0	874.8370116949486	389.2430696531178	0.0	875.8347837514616	428.4214332308165	0.0	929.9193981158877	465.65554843185987	0.0	960.1323353163161	552.2095972084621	0.0	898.4560419160033	581.7724125691277	0.0	932.4417526343083	461.87519451031517	0.0	992.4024180512096	501.2622807025341	0.0	1010.1501378278422	578.1105396264451	0.0
166	2.7666666666666666	998.8344059679137	577.7794213442379	0.0	1005.7988435795927	572.5216907702413	0.0	1030.928344603998	701.5296548220807	0.0	1121.06170473109	784.819508375774	0.0	1088.3380288337817	826.5323440512325	0.0	1094.9979232296835	822.1211267773185	0.0	1145.786215705846	792.9078825744103	0.0	996.5799019005556	572.2261493672629	0.0	928.2440105066114	694.6984100978295	0.0	1041.493183336022	741.2464432800601	0.0	1038.7333588319534	794.8434756957732	0.0	1042.569853361299	789.6384284898537	0.0	1062.2510943740301	740.3994990964163	0.0	906.207925529325	451.7700029699312	0.0	858.3665605820894	389.255572670935	0.0	858.5295897094916	427.88276132144114	0.0	908.2559480417656	466.13398311208095	0.0	931.5802829742528	555.1165774866297	0.0	863.5379453556911	571.3089199252155	0.0	914.7410526922363	459.14405190471837	0.0	978.1874442310118	488.2408735067079	0.0	1001.3470664451812	563.7697451126978	0.0
167	2.783333333333333	978.1281971493654	577.2250742659305	0.0	988.6264333961566	571.1427845328031	0.0	1027.5245520710637	698.4155156007988	0.0	1118.530558948613	782.4808582684971	0.0	1090.3353007906624	826.7992131900086	0.0	1097.8607196869064	822.6058976671292	0.0	1142.328570115498	789.3340693545101	0.0	973.939930541616	572.677510788726	0.0	892.8505293554294	686.3373748472536	0.0	995.1389477141018	746.6121779779891	0.0	979.0356854975564	798.9260640875538	0.0	984.4354791107008	795.4652246214332	0.0	1015.2020685920033	748.764811185803	0.0	887.391624750311	450.407128873284	0.0	841.5639541126112	388.19981064051876	0.0	840.7572450931264	426.4315322531565	0.0	886.869605055748	465.40050410050316	0.0	903.6064626365052	555.4149902652009	0.0	832.2500915117347	562.0204376594622	0.0	896.1547593106902	456.40743972116536	0.0	961.0002286398297	477.8973734468528	0.0	987.3352681150657	552.5990958790308	0.0
168	2.8	956.8702945318964	576.1436825172641	0.0	969.9327613568954	569.7994045737299	0.0	1019.9962295515113	694.4714138407747	0.0	1112.8734320581557	778.4809646277163	0.0	1092.0906071169586	825.754261570966	0.0	1100.0698830465956	821.4447121941439	0.0	1135.3757425660442	784.1139436178664	0.0	951.0321848315924	572.6457957812602	0.0	860.7712375927285	678.6525579184834	0.0	951.0265701839796	752.9173307026158	0.0	923.0217644481315	802.5735659839012	0.0	929.3603512301628	800.7966663929644	0.0	970.221582023972	758.0088074336398	0.0	868.0358275732734	448.21547550214086	0.0	824.1148349101343	385.8849685997603	0.0	822.2644569564643	423.96271014079014	0.0	866.0371975556866	463.499636420816	0.0	877.5977657584313	553.0844381444695	0.0	805.7958565238163	556.0115694911538	0.0	876.8951382436669	453.5980483825439	0.0	941.0279281574859	471.8777404449814	0.0	967.6809473675506	546.6165557401793	0.0
169	2.8166666666666664	935.2176156887316	574.8121753046325	0.0	949.9442071165487	568.5736584575193	0.0	1007.0466264319875	690.7543794613546	0.0	1103.127234874944	772.4048726304625	0.0	1092.3383933877378	822.5963674233942	0.0	1100.1412441768834	817.8191319255386	0.0	1124.402468257162	776.5729605171177	0.0	927.9788916896148	572.1692844375088	0.0	832.3131129133224	672.981456546866	0.0	911.3399351825669	759.976131526694	0.0	874.0691494161767	805.9588430525401	0.0	880.6960492106805	805.5430822421332	0.0	929.5536389032893	767.672751022059	0.0	848.1531070629193	445.35426271456413	0.0	805.9093819041514	382.40127820311807	0.0	802.9924361833887	420.69141201703667	0.0	845.9916771881507	460.7158416091752	0.0	854.6879740881653	548.8004047935578	0.0	784.6704222595198	554.5807034408645	0.0	857.163355839944	450.75570009345876	0.0	918.519946506635	471.0686130833293	0.0	942.0765748366682	546.6587304541519	0.0
170	2.8333333333333335	913.1441113232589	573.6282231415756	0.0	928.9481677527199	567.5864759070475	0.0	987.8257827735703	688.389060972612	0.0	1088.4347424977616	764.0071881862723	0.0	1089.2576963362387	816.5474687449966	0.0	1096.3130923345911	811.1066855393552	0.0	1108.7824361643623	766.1024214695769	0.0	904.7769854654498	571.4653311685676	0.0	807.614307324464	670.2939925958009	0.0	877.8459559790142	767.4520254082098	0.0	834.4435057192645	809.6173213160253	0.0	841.1948217967768	809.9880827633211	0.0	895.1815780936558	777.2303704810265	0.0	827.9107919403791	442.15099657296645	0.0	786.9685553400466	378.16100914833135	0.0	783.0782688502355	417.15261443565333	0.0	826.9464710331143	457.4753861406267	0.0	835.3310851296458	543.6451514079279	0.0	768.7785556693178	557.8653635582458	0.0	837.1804855018745	448.1543775812409	0.0	893.6625001882833	475.4514286268158	0.0	910.5414129838043	552.2558154882163	0.0
